<?xml version="1.0" encoding="utf-8"?>
<!-- Generator: Adobe Illustrator 28.0.0, SVG Export Plug-In . SVG Version: 6.00 Build 0)  -->
<svg version="1.1" id="Layer_1" xmlns="http://www.w3.org/2000/svg" xmlns:xlink="http://www.w3.org/1999/xlink" x="0px" y="0px"
	 viewBox="0 0 1000 1000" style="enable-background:new 0 0 1000 1000;" xml:space="preserve">
<style type="text/css">
	.st0{fill:#05272F;}
	.st1{fill:#FFF1D2;}
	.st2{fill:url(#SVGID_1_);}
	.st3{fill:#F7F7F6;}
	.st4{fill:#F2F2F2;}
	.st5{fill:#F7EADE;}
	.st6{fill:#FCF3ED;}
	.st7{fill:#FD7251;}
	.st8{fill:url(#SVGID_00000183938698900498288950000013746511409937613469_);}
	.st9{fill:url(#SVGID_00000113334480722785608470000001443867752883021444_);}
	.st10{fill:url(#SVGID_00000157291730698836437950000016188315736899783324_);}
	.st11{fill:url(#SVGID_00000161624837026259372990000005071239902866404532_);}
	.st12{fill:#062931;}
	.st13{fill:#C0B2A7;}
	.st14{fill:url(#SVGID_00000142166177313950034520000008516598452409079964_);}
	.st15{opacity:0.37;}
	.st16{opacity:0.36;}
	.st17{fill:#E27055;}
	.st18{fill:#CCB5A8;}
	.st19{fill:#C5B8AB;}
	.st20{fill:#FC7252;}
	.st21{fill:#06272F;}
	.st22{fill:#183332;}
	.st23{fill:#032830;}
	.st24{fill:#2B2220;}
	.st25{fill:#C6543B;}
	.st26{fill:#D4AF9D;}
	.st27{fill:#FBFBFA;}
	.st28{fill:#2E4F62;}
	.st29{fill:#F0F7F8;}
	.st30{fill:#F9FCFB;}
	.st31{fill:url(#SVGID_00000158710993732413389970000014904722010831659684_);}
	.st32{opacity:0.57;}
	.st33{fill:url(#SVGID_00000163031256753491774160000012971875045085126292_);}
</style>
<g>
	<path class="st0" d="M847.8,62.6c0.4-0.1,2.3-0.9,4.7-1.8c4.5-1.7,9-3.3,13.5-4.9c14.1-5.2,24.8,2,29.7,13.1
		c9.6,21.6,16.4,43.9,20.7,67.1c4.5,23.9,6.1,48,6.6,72.4c1.1,48.8-7.1,95.7-26,140.7c-8.7,20.8-20.3,40-33.4,58.3
		c-0.9,1.3-1.8,2.6-3,4.4c13.1,3,25.8,5.9,38.4,8.9c11.2,2.7,14.5,6.1,14.7,17.5c0.2,11.7,0.5,23.5-0.4,35.2
		c-0.5,6.3-3.7,9.6-9.2,11.3c-5.2,1.6-10.5,2.8-15.8,4.1c-11.3,2.7-13.3,6-7.8,16c24.2,44.3,53.8,83.8,100.2,107.5
		c1.8,0.9,3.6,1.9,5.3,3c7.7,5.3,7.9,12.3,0.1,17.5c-11.5,7.7-24.1,13.3-36.8,18.5c-2.5,1-4.5,1.9-5.3,5
		c-15.9,59.3-53.3,101.4-105.5,131.9c-32.4,18.9-66.9,33.5-100.5,50c-46.7,22.8-93.2,46.2-139.9,69c-26.9,13.1-54.3,25.2-82.4,35.6
		c-10.9,4-20.9,3.8-31.7-0.2c-39.1-14.5-76.5-33-113.8-51.6c-52.5-26.2-105-52.5-158.3-76.9c-31.5-14.4-62.2-30.4-88.9-52.9
		c-32.8-27.7-55.2-62.1-66.8-103.4c-0.9-3.1-2.2-4.8-5.1-6c-11.8-4.8-23.3-10.3-34.3-16.8c-11.4-6.7-11.5-15,0.3-21.2
		c27-14.1,49.8-33.1,68.6-56.9c13.1-16.6,24.7-34.1,34.3-52.9c4-7.9,1.9-12.4-6.9-14.8c-5.6-1.5-11.4-2.8-17.1-4.2
		c-5.8-1.5-9.2-5.2-9.5-11.1c-0.6-13.9-1.2-27.9,0.6-41.8c0.6-4.7,3.1-7.9,7.7-9c12.7-3.2,25.3-6.5,38-9.5c6.7-1.6,6.9-1.5,2.7-7.3
		c-21.2-28.9-36.5-60.6-46.3-95c-7-24.4-10.8-49.2-12-74.6C75,187.7,79.3,139.4,95,92.6c2.9-8.6,6.4-17,10.2-25.3
		c4.3-9.5,17.4-15.2,27.4-11.8c35.7,12.3,69.6,28.4,102.7,46.4c39.5,21.4,76.3,46.6,107.6,79.2c8.1,8.5,15.5,17.6,23.7,26.6
		c8.4-3,17.6-5.8,27.6-8.4c9.8-2.5,19.1-4.4,27.7-5.8c30.2-4.8,59.9-7.9,90-6.8c18.9,0.7,37.6,2.2,56.2,5.4
		c8.3,1.4,16.6,3.1,25.5,4.6c17,3.8,27.8,6.5,31.7,8.3c0,0,3.8,1.9,7.5,1c0.9-0.2,1.8-0.6,2.7-1.1c0.4-0.3,0.3-0.4,0.4-0.3
		c4.3-5.6,10.4-13.2,18.4-21.7c11.4-12.1,21-20.3,30-27.8c13.3-11.2,23.3-18.3,26-20.3c2.8-2,7.6-5.3,14.2-9.5
		C771.9,95.1,837.6,66.5,847.8,62.6z"/>
	<path class="st1" d="M868.7,560.3c12.5,16.5,24.3,33.2,39.4,47.2c4.9,4.5,9.8,9,15.4,14.1c-10.9,2.4-21,4.6-31.3,5.8
		c-5,0.6-9.9,1.7-14.9,2.2c-3.5,0.4-5.5,2.2-6.5,5.4c-1,3.5,0.9,5.8,3.3,7.8c3.9,3.2,8.5,5.4,13.1,7.6c3.8,1.9,7.5,4,11.5,5.3
		c6,1.9,5.6,5.1,2.7,9.3c-0.7,0.9-1.4,1.9-2.2,3.2c-4.4,7.6-10.4,13.3-16.3,19.7c-24.6,21.4-51.2,39.1-79.2,54.6
		c-54.4,30.1-110.7,56.6-167.2,82.4c-35.2,16.1-70.9,30.8-107.8,42.7c-18.8,6.1-36.9,6.9-55.8,0.6c-30.7-10.4-60.8-22.3-90.4-35.5
		c-45.3-20.2-90.1-41.6-134.6-63.5c-32.2-15.8-64.1-32.1-93.5-52.9c-7.6-5.4-15.1-10.9-23-16.7c-2.1-2.7-4.4-4.6-7.3-6.3
		c-0.8-0.5-1.2-0.8-1.9-1.4c-0.5-0.4-0.7-0.6-1.5-1.3c-0.8-0.7-1-0.9-1.8-1.6c-6.4-5.6-11.3-11.5-16.4-17.7
		c-7.8-12.6-7.8-12.6,5-18.5c6.2-2.9,12.5-5.8,17.9-10.1c2.5-1.9,4.6-4,3.8-7.6c-0.8-3.7-3.5-5.4-6.9-5.9
		c-9.8-1.5-19.5-2.8-29.3-4.4c-5.3-0.9-10.5-2.2-17.1-3.6c22.3-18.3,39.9-39.2,56-63.3c4.8,22.4,10.9,42.4,21.2,61.4
		c8.9,15.5,22.6,33.7,43.7,48.3c73.6,51,168.1,10.3,176.8,6.4c13.5-0.7,27-1.4,40.4-2.1c0.3-0.6,0.5-0.8,0.9-1.4
		c0.4-0.5,0.6-0.7,1.3-1.4c0.7-0.7,0.9-0.9,1.3-1.4c0.7-0.8,1.3-1.4,2-2.2c0.8-0.8,1.5-1.2,2.3-2.1c0.5-0.4,0.7-0.6,1.3-1
		c9.5-6.9,18.4-14,28.8-19.6c14.2-6.6,28.5-11.3,43.7-12.3c14.7-0.9,28.7,2.8,42.4,8c8.2,3.1,15.6,7.5,23.4,12.2
		c0.7,0.3,1,0.4,1.7,0.6c0.7,0.3,0.9,0.4,1.5,0.8c0.6,0.4,0.8,0.6,1.3,1.1c0.8,0.9,1.3,1.4,2.4,2c0.5,0.4,0.7,0.5,1.2,0.9
		c0.6,0.6,1,1,1.7,1.5c0.5,0.4,0.7,0.6,1.1,1.1c2.8,2.5,5,5.3,8.3,7.4c0.6,0.4,0.8,0.6,1.2,1.1c15.4,2.5,30.7,5,46.1,7.6
		c20,8.8,52.3,19.3,91.9,16.7c17.2-1.1,78.5-5.1,113.7-48.9c23.5-29.3,31.7-71.8,31.9-73.1c0-0.1,0.1-1,0.4-2.3
		c0.1-0.5,0.3-1.5,0.7-2.6C867,563.5,867.6,562,868.7,560.3z"/>
	<path class="st1" d="M844.5,148.9c6.4-11.2,12.4-22,18.3-32.8c0.8-1.5,2.6-3.2,1.1-4.9c-1.4-1.7-3.4-0.3-5.1,0.3
		c-17.1,6.9-33.6,15.1-50,23.5c-2.3,1.2-4.7,2.4-7.5,3.6c-1.3,0.9-2.6,1.1-3.8,1.9c-0.3,0.2-0.8,0.5-1.1,0.6
		c-2.8,1.7-6.1,1.9-8.6,4.6c-0.3,0.3-0.3,0.3-0.3,0.3c-2.4,1.8-5.9,1.5-8.2,4.4c-1.1,0.8-1.9,1.3-3,1.9c-8.6,2.6-15.2,8-22.4,13.2
		c-0.3,0.7-0.5,1-1.1,1.3c-2.6,1.4-5.8,1.3-7.5,4.5c-0.3,0.3-0.3,0.3-0.3,0.3c-0.2,0.2-0.4,0.4-0.9,0.7c-0.3,0.2-0.7,0.5-0.9,0.6
		c-3.2,1.6-5.7,3.8-8.8,5.7c-0.4,0.7-0.6,1-1.3,1.3c-2,1.4-4.4,1.7-6,3.9c-0.8,1-1.4,1.6-2.4,2.2c-1.8,3.2-4.8,8-9.2,13.4
		c-8.7,10.7-17.3,16.6-20.4,18.8c-27.1,19.8-35.8,59.7-44,57.6c-2-0.5-4.3-3.5-4.8-15.8c23.7-35.1,48.3-59,66.2-74.3
		c43.2-36.8,57.6-42.2,98.7-62.4c15.4-7.6,31.2-14.4,46.7-21.8c4.3-2.1,6.2-1.1,7.7,3.4c7.2,21.5,12.1,43.5,14.6,66.1
		c2,18.9,2.5,37.9,2.1,56.8c-0.9,48.7-14.4,93.9-38.6,136.5c-4.6-0.6-4.6-4.6-5.5-7.7c-5.5-17-8.4-34.5-11.3-52.1
		c-4.3-25.2-4.6-50.7-3.6-76.2c0.9-23.6,5.8-46.5,14.2-68.6C838.9,155.9,840.6,152,844.5,148.9z"/>
	<path class="st1" d="M152.7,144.6c1,1.3,1.7,2.2,2.6,3.5c3.6,3.3,5.6,7.3,7.3,11.5c10.2,25.4,13.9,51.9,14.7,79
		c1.2,39.8-4.1,78.8-14.7,117.1c-0.9,3.3-1.5,6.8-5,9.1c-14.5-23.8-25-49.1-31.5-76.4c0.1-0.9,0-1.4-0.5-2.1
		c-0.4-1.2-0.6-2.2-0.9-3.6c-3-13.7-4.5-25.3-5.4-33.9c-2.5-25.1-1.1-45.4-0.3-57.3c0.6-9.1,1.7-19.7,2-23c0.3-3,0.2-2.3,2.2-19.1
		c0.6-5.6,3.2-27.5,8-28.2c0.6-0.1,1.8,0,3.6-0.7c1.6-0.6,2.3-1.4,3.1-1.1c0.7,0.2,1.2,0.9,1.7,2.3c2,6.1,6.3,11,9.8,16.7
		c0.4,0.2,0.4,0.3,0.4,0.3C150.3,140.6,151.2,142.5,152.7,144.6z"/>
	<linearGradient id="SVGID_1_" gradientUnits="userSpaceOnUse" x1="155.5198" y1="264.257" x2="238.1084" y2="264.257">
		<stop  offset="1.065558e-07" style="stop-color:#4F5B64"/>
		<stop  offset="1" style="stop-color:#962F6A"/>
	</linearGradient>
	<path class="st2" d="M157.1,365.2c7.2-19.7,10.7-40,13.9-60.3c3.6-23.2,4.9-46.6,3.9-70c-1.2-29.7-6.1-58.6-19.4-86
		c4,0.5,7.7,2.2,11.8,4.3c6.8,1.1,10.9,6,15.3,9.8c10.2,8.7,18.3,19.2,26,30.7c2,3.6,4.6,6.4,5.1,10.7c9.6,21.4,17.4,43,21.3,65.9
		c1.1,6.4,2,12.7,3,19.1c0.4,2.4-0.2,4.2-2.1,5.9c-27.1,22.8-48.5,50.3-66.8,80.4c-0.8,1.4-2,2.5-3.2,4.1
		C162.9,374.8,160.1,370.2,157.1,365.2z"/>
	<path class="st1" d="M674.3,652.2c12.9-9.5,27.3-16.8,41.3-24.9c36.2-21,72.7-41.4,111.7-58.1c-12.9,44.7-40.3,74.9-87.2,84.7
		C718.2,658.4,696.4,657,674.3,652.2z"/>
	<path class="st1" d="M172.3,569c43.1,18.7,84.1,41.9,124.8,65.6c9.4,5.5,18.8,11,28.4,16.9c-39.8,9.3-78.1,6.7-111.9-18.7
		C192.4,616.9,179.8,594.6,172.3,569z"/>
	<path class="st3" d="M439,245.2c-1.2,0.3-2.1,0.4-3.5,0.5c-11.7,1.1-22.9,2.6-34.1,6.3c-1.3,0.4-2.2,0.7-3.6,0.9
		c-1.5,0.1-2.5,0.1-3.8,0.8c-0.8,0.4-1.2,0.5-2,0.6c-0.6,0.1-0.8,0.2-1.5,0.5c-1.3,0.3-2.2,0.5-3.6,0.7c-4.3,1.1-8.4,1.1-12.3,3.1
		c-0.8,0.4-1.2,0.5-2,0.6c-2.6,0.8-5.1,0.7-7.7,2c-3.7,1.5-7.1,2.6-10.9,3.7c-3.6-1.7-4.8-3.9-2.2-7.2c2.2,2.7,4.3,2.1,6.6,0.8
		c25.3-13.1,52-21.9,80-26.9c36-6.5,72.2-7.3,108.5-2.4c33.3,4.5,64.8,14.7,94.9,29.6c1.9,0.9,4,2.8,5.7-0.9c3.9,0.4,2.5,3.1,2,4.9
		c-0.7,2.6-2.9,1.3-4.5,0.9c-5.4-1.4-10.6-3.3-16.6-4.5c-1.4-0.3-2.2-0.4-3.5-0.8c-0.6-0.3-0.9-0.3-1.4-0.5
		c-11.3-2.7-22.2-5.2-33.7-7.8c-1.4-0.5-2.4-0.3-3.6-0.8c-1.2-0.3-2.2-0.4-3.6-0.6c-5.6-2.2-11.2-2.2-17.1-3.3
		c-1.3,0-2.3-0.1-3.6-0.2c-1.7-1-3.1-1-4.9-1.1c-1,0-1.5,0-2.5-0.1c-1.8-0.7-3.3-0.3-5.1-0.7c-0.9-0.1-1.3-0.1-2.2-0.2
		c-0.9-0.1-1.4-0.2-2.4-0.2c-2.5-0.2-4.6-0.4-7.2-0.7c-3.8-0.7-7.2-0.3-11-0.5c-1.4,0-2.3,0-3.8-0.1c-14.7-1.7-28.9-1.1-43.6-0.4
		c-2.6,0.3-4.7,0.5-7.4,0.5c-2.7,0.1-4.9-0.1-7.5,0.2c-2.9,0.4-5.4,0.7-8.4,1c-2.3,0.2-4.2-0.3-6.2,0.7c-1.6,0.3-2.9,0.4-4.7,0.5
		C443,244.7,441.1,244.2,439,245.2z"/>
	<path class="st4" d="M149.7,138c-6.9-3.4-9-10.4-12.1-17.2c-4.9,1-4.8,7.8-10,9.3c0.7-9.7,4.5-18.6,7.2-27.9
		c1.1-3.6,3.4-1.9,5.3-1.2c17.4,6.6,34.1,14.7,50.7,23c39.6,20,77.6,42.5,110,73.3c8.1,7.7,15.6,16.1,23.6,24.6c0,3.5-2,2.9-4.5,2.2
		c-0.9-0.4-1.2-0.6-1.6-1.2c-1.4-3.8-4.8-5.5-7.4-8.1c-0.4,0.1-0.7,0-0.7-0.1c-0.5-3-3.3-3.5-5.4-5.2c-0.4-0.1-0.8-0.2-0.9-0.4
		c-1-1.4-1.7-2.8-3.7-3.4c-1.7-1.3-3.1-2.3-4.7-3.8c-1.2-1.4-1.8-2.9-3.7-3.5c-0.3-0.2-0.2-0.3-0.3-0.2c-0.7-1.1-1.9-1.5-3.3-2.3
		c-41.4-32.3-86.3-58.1-133.8-79.3c-5.2-2.3-10.5-4.3-15.7-6.4c-1.1-0.4-2.3-1.3-3.3-0.2c-1,1.1,0,2.3,0.6,3.3
		C140.6,121.5,145.1,129.6,149.7,138z"/>
	<path class="st5" d="M319.6,224.3c1.4-0.7,2.9-1,4.7-1.6c10.8,10.1,18.9,22.6,28,34.7c-2.2,2.9,0.2,4.8,1.1,7.2
		c-2,2-4.6,2.5-7.6,3.3c-1.2,0.2-1.8-0.1-2.2-1.3c7.1-4.1,7.1-4.2,2.4-10.5C337.7,245.3,328.9,234.8,319.6,224.3z"/>
	<path class="st6" d="M442,283.8c-2.9,5.1-6.8,7.9-12.2,5.7c-4.1-1.7-7-4.9-6.2-10c0.7-4.9,5-8.5,9.7-8.2
		C439.1,271.7,442.4,276.1,442,283.8z"/>
	<path class="st6" d="M491.5,275.9c2.8-4.7,6.4-6.9,11.4-5.3c3.8,1.3,6.4,4,6.6,8.5c0.2,4.4-1.9,7.3-5.6,9.2c-3,1.5-5.9,1.1-8.5-0.8
		C491.4,284.7,490.3,280.9,491.5,275.9z"/>
	<g>
		<g>
			<path class="st7" d="M812.3,446.6c-0.2-0.3-0.3-0.6-0.5-0.8c-4.8-2.5-9.4-4.3-14.3-5.5c-38.3-9.9-77.1-13.8-116.6-9.7
				c-23,2.4-45.5,7.3-66.9,16.2c-28.2,11.7-44.5,32.4-48.1,63.1c-2.7,23.3,0.6,45.6,10.2,66.9c19.1,42.5,53.3,65.7,98.3,75.1
				c2.2-0.4,3.9-1.1,5.5-2c15.5-8.8,30.8-17.8,46.3-26.6c28.1-16,56.4-31.7,85.7-45.4c5.4-2.5,11.6-4,16.1-9.1
				c2.9-7.2,2.9-14.6,4.6-22.1c0,0,0,0,0,0c0.1,0.1,0.2,0.2,0.3,0.2c4.9-21.4,6-42.7,5.7-64.1C838.5,463.8,824.3,449.5,812.3,446.6z
				"/>
			<path class="st7" d="M620.5,670.9c-44.2-23.6-66.5-59.3-66.5-59.3c-12.1-20-19.9-41.5-23.9-64.4c-1.4-7.9-3-15.8-10.7-20.1
				c-12.8-7.1-25.8-7.1-38.7,0c-5.9,3.3-9.3,8-10.2,14.8c-0.9,6.2-2.2,12.3-3.6,18.4c-4.8,21.6-13.1,40.7-24.6,57.2
				c-19.8,28.5-44.7,43.1-58.2,50.9c-5.2,3-9.6,5.2-12.7,6.6c9.2,5.7,18.3,11.5,27.5,17.2c3.3-5.4,8.2-12.6,15.3-20.3
				c4.7-5,17.8-18.4,39.2-28.6c8-3.8,18.8-9,34.1-11c4.1-0.5,29.3-3.5,55.5,8.7c12,5.6,21.9,13.4,25.8,16.4c5,4,9,7.7,11.8,10.4
				c0.1,0,0,0.1,0.4,0.2c7.2,8.1,14.4,16.2,21.6,24.3c8.6-5.9,17.1-11.8,25.7-17.7c-1.2-0.6-2.7-1.4-4.6-2.3
				C623.6,672.5,622,671.7,620.5,670.9z"/>
			<path class="st7" d="M864.1,110.8c-2.1-2.3-8.2-0.1-10.7,0.9c-48.5,18.5-63.3,27.8-63.4,27.8l0,0c-42.9,21.5-72.7,49.3-88.1,63.9
				c-9.9,9.4-17.1,17.1-26.3,26.9c-8.9,9.5-14.9,16.3-21.1,24.2c-3,3.7-5.4,6.9-7,9.2c-5.9-2-14.3-4.7-24.5-7.6
				c-30.3-8.6-83.4-23.8-148.3-18.6c-39.4,3.1-72.9,12.6-99.7,20.2c-9.8,2.8-17.8,5.3-23.2,7c-7.4-10.8-17.9-24.9-32-40.2
				c-24-26.1-45.5-41.6-67.6-57.3c0,0-49.9-35.5-94.3-52c-6-2.2-10.2-2.8-15.6-5c-2.5-1-5.5-3.1-7.8-0.3c-2.1,2.6,0.2,5.3,1.3,7.9
				c0.4,0.9,1.2,1.6,1.8,2.5c3.5,5.9,7.4,11.5,10.2,18.3c0.2,0.5,0.3,0.6,0.4,0.8c2.2,4.3,5,7,6.9,8.9c6.6,6.2,12.4,11.1,15,13.4
				c12.5,11.3,24.9,22.6,37.4,33.9c2.2,3.3,3.2,6.9,6.4,9.3c2.1-0.3,3.7-0.1,5.1,0.9c6.6,4.6,13.3,9.2,19.4,14.5
				c17.9,15.8,31.5,35.2,45,54.6c2.9,4.1,1.7,6.2-1.8,8.9c-28.4,22.7-54,48.1-75,77.9c-8.5,12.1-15.8,24.9-22.8,37.9
				c-0.9,1.7-2.9,5,1.5,4.3c10.2-1.5,20.4-3.5,30.3-5.4c0.7,0.2,1.9,0.1,3.4-0.4c6.9-0.9,13.3-1.8,19.7-2.6
				c26-2.9,52.1-3.4,78.2-1.2c26.7,2.2,52.9,6.8,77.8,17.2c26.5,11,50.8,24.7,62.5,53.1c1.6,3.9,4,3.2,6.8,2.2
				c6.8-2.5,13.8-4.6,21-5.8c17-2.7,33.5-0.4,49.5,5.3c4.6,1.6,7.4,1.2,9-4c2-6.4,6.1-11.9,10.3-17c12.3-15,28.7-24.1,46.1-31.7
				c34.9-15.1,71.7-20.3,109.5-20.8c24.6-0.3,48.9,2.5,73.6,5.2c0-0.1,0.1-0.1,0.1-0.2c-0.1,0.1-0.1,0.3-0.2,0.5
				c9.5,1.8,18.6,3.3,27.8,4.9c1.5,0.3,3.2,1.5,4.4-0.3c0.8-1.3,0.1-2.7-0.5-4c-12.1-24.2-26.8-46.6-45.1-66.5
				c-16.2-17.6-33.1-34.3-52.1-49c-2.3-1.8-4.2-3.6-2-7c17-26.4,36.8-50.2,62.2-69c2.6-1.9,5.2-3,8.8-2.5c4.6-6,7.6-12.4,11.9-18
				c9.1-12.1,19.8-22.5,31.1-31.9c1.3-0.3,2.7-0.5,4.1-0.7c4.5-0.7,8.2-2.4,12-4.9c8.3-11.7,13.4-21.3,16.5-28
				C864.1,117.2,865.9,112.8,864.1,110.8z M340.1,269.1c1.3-0.6,2.8-1.2,4.5-2.1c0.1-0.1,0.2-0.1,0.4-0.2
				C343.2,267.9,341.5,268.5,340.1,269.1z M656,267.8c-0.5-0.3-0.9-0.6-1.4-1c0.4,0.3,0.9,0.5,1.4,0.8c0.6,0.3,0.9,0.3,1.1,0.5
				C656.7,268.1,656.3,268,656,267.8z"/>
			<path class="st7" d="M399.6,613.4c28.4-29.9,39.3-65.8,34.1-106.6c-2.6-20.2-12.1-36.7-28.5-49c-16.6-12.4-36-18.2-55.9-22.4
				c-31.9-6.8-64.2-8.3-96.6-4.7c-21.1,2.4-42,6-62.4,13.6c-0.5,0.3-0.7,0.4-1.1,0.4c-0.1,0-0.2,0.2-0.5,0.6
				c-0.1,0.1-0.2,0.2-0.3,0.2c0.1-0.2,0.1-0.4,0.2-0.6c-19.2,7.6-28,20.4-28,40.6c0,5.5-0.3,10.9,0,16.4c0.9,15.7,1.8,31.5,6.5,46.2
				c0.1,0.7,0.1,1.4,0.2,2.1c1.6,6.4,1.3,12.9,5.2,18.6c1.7,2.8,4.2,3.7,6.6,4.8c10.1,4.7,20.2,9.3,30.1,14.4
				c36.8,19.1,72.8,39.7,108.5,60.9c2.5,1.5,4.9,2.8,8.4,3C354.6,646,379.8,634.2,399.6,613.4z"/>
		</g>
		<g>
			
				<linearGradient id="SVGID_00000151515569698531453920000007321120946645191565_" gradientUnits="userSpaceOnUse" x1="133.8787" y1="400.4125" x2="864.8475" y2="400.4125">
				<stop  offset="0" style="stop-color:#4F5BD5"/>
				<stop  offset="0.2114" style="stop-color:#962FBF"/>
				<stop  offset="0.4311" style="stop-color:#D62976"/>
				<stop  offset="0.7328" style="stop-color:#FA7E1E"/>
				<stop  offset="1" style="stop-color:#FEDA75"/>
			</linearGradient>
			<path style="fill:url(#SVGID_00000151515569698531453920000007321120946645191565_);" d="M812.3,446.6c-0.2-0.3-0.3-0.6-0.5-0.8
				c-4.8-2.5-9.4-4.3-14.3-5.5c-38.3-9.9-77.1-13.8-116.6-9.7c-23,2.4-45.5,7.3-66.9,16.2c-28.2,11.7-44.5,32.4-48.1,63.1
				c-2.7,23.3,0.6,45.6,10.2,66.9c19.1,42.5,53.3,65.7,98.3,75.1c2.2-0.4,3.9-1.1,5.5-2c15.5-8.8,30.8-17.8,46.3-26.6
				c28.1-16,56.4-31.7,85.7-45.4c5.4-2.5,11.6-4,16.1-9.1c2.9-7.2,2.9-14.6,4.6-22.1c0,0,0,0,0,0c0.1,0.1,0.2,0.2,0.3,0.2
				c4.9-21.4,6-42.7,5.7-64.1C838.5,463.8,824.3,449.5,812.3,446.6z"/>
			
				<linearGradient id="SVGID_00000013151228006821332370000011667607437744678042_" gradientUnits="userSpaceOnUse" x1="133.8787" y1="400.4125" x2="864.8475" y2="400.4125">
				<stop  offset="0" style="stop-color:#4F5BD5"/>
				<stop  offset="0.2114" style="stop-color:#962FBF"/>
				<stop  offset="0.4311" style="stop-color:#D62976"/>
				<stop  offset="0.7328" style="stop-color:#FA7E1E"/>
				<stop  offset="1" style="stop-color:#FEDA75"/>
			</linearGradient>
			<path style="fill:url(#SVGID_00000013151228006821332370000011667607437744678042_);" d="M620.5,670.9
				c-44.2-23.6-66.5-59.3-66.5-59.3c-12.1-20-19.9-41.5-23.9-64.4c-1.4-7.9-3-15.8-10.7-20.1c-12.8-7.1-25.8-7.1-38.7,0
				c-5.9,3.3-9.3,8-10.2,14.8c-0.9,6.2-2.2,12.3-3.6,18.4c-4.8,21.6-13.1,40.7-24.6,57.2c-19.8,28.5-44.7,43.1-58.2,50.9
				c-5.2,3-9.6,5.2-12.7,6.6c9.2,5.7,18.3,11.5,27.5,17.2c3.3-5.4,8.2-12.6,15.3-20.3c4.7-5,17.8-18.4,39.2-28.6
				c8-3.8,18.8-9,34.1-11c4.1-0.5,29.3-3.5,55.5,8.7c12,5.6,21.9,13.4,25.8,16.4c5,4,9,7.7,11.8,10.4c0.1,0,0,0.1,0.4,0.2
				c7.2,8.1,14.4,16.2,21.6,24.3c8.6-5.9,17.1-11.8,25.7-17.7c-1.2-0.6-2.7-1.4-4.6-2.3C623.6,672.5,622,671.7,620.5,670.9z"/>
			
				<linearGradient id="SVGID_00000004528495049856463200000003795115003460488320_" gradientUnits="userSpaceOnUse" x1="133.8787" y1="400.4125" x2="864.8475" y2="400.4125">
				<stop  offset="0" style="stop-color:#4F5BD5"/>
				<stop  offset="0.2114" style="stop-color:#962FBF"/>
				<stop  offset="0.4311" style="stop-color:#D62976"/>
				<stop  offset="0.7328" style="stop-color:#FA7E1E"/>
				<stop  offset="1" style="stop-color:#FEDA75"/>
			</linearGradient>
			<path style="fill:url(#SVGID_00000004528495049856463200000003795115003460488320_);" d="M864.1,110.8c-2.1-2.3-8.2-0.1-10.7,0.9
				c-48.5,18.5-63.3,27.8-63.4,27.8l0,0c-42.9,21.5-72.7,49.3-88.1,63.9c-9.9,9.4-17.1,17.1-26.3,26.9c-8.9,9.5-14.9,16.3-21.1,24.2
				c-3,3.7-5.4,6.9-7,9.2c-5.9-2-14.3-4.7-24.5-7.6c-30.3-8.6-83.4-23.8-148.3-18.6c-39.4,3.1-72.9,12.6-99.7,20.2
				c-9.8,2.8-17.8,5.3-23.2,7c-7.4-10.8-17.9-24.9-32-40.2c-24-26.1-45.5-41.6-67.6-57.3c0,0-49.9-35.5-94.3-52
				c-6-2.2-10.2-2.8-15.6-5c-2.5-1-5.5-3.1-7.8-0.3c-2.1,2.6,0.2,5.3,1.3,7.9c0.4,0.9,1.2,1.6,1.8,2.5c3.5,5.9,7.4,11.5,10.2,18.3
				c0.2,0.5,0.3,0.6,0.4,0.8c2.2,4.3,5,7,6.9,8.9c6.6,6.2,12.4,11.1,15,13.4c12.5,11.3,24.9,22.6,37.4,33.9c2.2,3.3,3.2,6.9,6.4,9.3
				c2.1-0.3,3.7-0.1,5.1,0.9c6.6,4.6,13.3,9.2,19.4,14.5c17.9,15.8,31.5,35.2,45,54.6c2.9,4.1,1.7,6.2-1.8,8.9
				c-28.4,22.7-54,48.1-75,77.9c-8.5,12.1-15.8,24.9-22.8,37.9c-0.9,1.7-2.9,5,1.5,4.3c10.2-1.5,20.4-3.5,30.3-5.4
				c0.7,0.2,1.9,0.1,3.4-0.4c6.9-0.9,13.3-1.8,19.7-2.6c26-2.9,52.1-3.4,78.2-1.2c26.7,2.2,52.9,6.8,77.8,17.2
				c26.5,11,50.8,24.7,62.5,53.1c1.6,3.9,4,3.2,6.8,2.2c6.8-2.5,13.8-4.6,21-5.8c17-2.7,33.5-0.4,49.5,5.3c4.6,1.6,7.4,1.2,9-4
				c2-6.4,6.1-11.9,10.3-17c12.3-15,28.7-24.1,46.1-31.7c34.9-15.1,71.7-20.3,109.5-20.8c24.6-0.3,48.9,2.5,73.6,5.2
				c0-0.1,0.1-0.1,0.1-0.2c-0.1,0.1-0.1,0.3-0.2,0.5c9.5,1.8,18.6,3.3,27.8,4.9c1.5,0.3,3.2,1.5,4.4-0.3c0.8-1.3,0.1-2.7-0.5-4
				c-12.1-24.2-26.8-46.6-45.1-66.5c-16.2-17.6-33.1-34.3-52.1-49c-2.3-1.8-4.2-3.6-2-7c17-26.4,36.8-50.2,62.2-69
				c2.6-1.9,5.2-3,8.8-2.5c4.6-6,7.6-12.4,11.9-18c9.1-12.1,19.8-22.5,31.1-31.9c1.3-0.3,2.7-0.5,4.1-0.7c4.5-0.7,8.2-2.4,12-4.9
				c8.3-11.7,13.4-21.3,16.5-28C864.1,117.2,865.9,112.8,864.1,110.8z M340.1,269.1c1.3-0.6,2.8-1.2,4.5-2.1
				c0.1-0.1,0.2-0.1,0.4-0.2C343.2,267.9,341.5,268.5,340.1,269.1z M656,267.8c-0.5-0.3-0.9-0.6-1.4-1c0.4,0.3,0.9,0.5,1.4,0.8
				c0.6,0.3,0.9,0.3,1.1,0.5C656.7,268.1,656.3,268,656,267.8z"/>
			
				<linearGradient id="SVGID_00000155869292535715615340000007259171728867758209_" gradientUnits="userSpaceOnUse" x1="133.8787" y1="400.4125" x2="864.8475" y2="400.4125">
				<stop  offset="0" style="stop-color:#4F5BD5"/>
				<stop  offset="0.2114" style="stop-color:#962FBF"/>
				<stop  offset="0.4311" style="stop-color:#D62976"/>
				<stop  offset="0.7328" style="stop-color:#FA7E1E"/>
				<stop  offset="1" style="stop-color:#FEDA75"/>
			</linearGradient>
			<path style="fill:url(#SVGID_00000155869292535715615340000007259171728867758209_);" d="M399.6,613.4
				c28.4-29.9,39.3-65.8,34.1-106.6c-2.6-20.2-12.1-36.7-28.5-49c-16.6-12.4-36-18.2-55.9-22.4c-31.9-6.8-64.2-8.3-96.6-4.7
				c-21.1,2.4-42,6-62.4,13.6c-0.5,0.3-0.7,0.4-1.1,0.4c-0.1,0-0.2,0.2-0.5,0.6c-0.1,0.1-0.2,0.2-0.3,0.2c0.1-0.2,0.1-0.4,0.2-0.6
				c-19.2,7.6-28,20.4-28,40.6c0,5.5-0.3,10.9,0,16.4c0.9,15.7,1.8,31.5,6.5,46.2c0.1,0.7,0.1,1.4,0.2,2.1
				c1.6,6.4,1.3,12.9,5.2,18.6c1.7,2.8,4.2,3.7,6.6,4.8c10.1,4.7,20.2,9.3,30.1,14.4c36.8,19.1,72.8,39.7,108.5,60.9
				c2.5,1.5,4.9,2.8,8.4,3C354.6,646,379.8,634.2,399.6,613.4z"/>
		</g>
	</g>
	<path class="st12" d="M513.5,763.3c-3.7,3.7-4.2,15.2-1.1,21.2c5.5,10.5,13.8,16.6,26,16.7c1.8,0,3.5,0.1,5.3,0.8
		c4.2,1.6,6.9,4.3,6.8,8.9c0,4.7-3,7.6-7.2,8.6c-15,3.6-28.2-0.7-39.1-11c-4.2-4-5.8-3.1-9.3,0.2c-9.3,8.7-20.6,12.4-33.3,12
		c-7.3-0.3-11.9-3.9-12.1-9.4c-0.2-6,4.2-9.8,11.9-10.2c18.8-1,30.2-14.8,27.7-33.5c-0.4-2.7-1.8-3.7-3.8-4.8
		c-14.6-8.9-26.3-20.5-36.3-34.4c-19-26.5-8.9-59.1,25.4-68.9c16.9-4.8,34.1-5.6,50.8-0.3c16.8,5.3,29.8,15.2,34.1,33.6
		c2.4,10.3-0.1,19.6-5,28.5C544.8,739,531.1,752.8,513.5,763.3z"/>
	<g>
		<path class="st13" d="M898.7,668.7c-1.8,2-4.6,5.2-8.3,9c-28.7,30-57.4,46.1-71.7,54c-49.4,27.3-93.4,49.6-147.6,75.2
			c-45.9,21.7-92.1,42.9-140.8,57.8c-10.6,3.3-21.3,7.3-32.5,6.7c-9.4-0.5-18.6-3.4-27.7-6.4c-55-17.8-106.9-43.1-159.1-67.6
			c-24.4-11.4-48.4-23.6-72.6-35.4c-33.6-16.4-45.5-23.7-56.2-30c-29.7-17.8-46.5-31.1-52.6-36.1c-11.6-9.4-20.8-18-27.4-24.4
			c1.6,3.3,3.9,7.7,6.9,12.6c2.1,3.4,5.4,8.6,11.4,16.4c7.7,9.9,14.2,18.4,24.1,27c7.3,6.4,13.6,10.3,18.9,13.6
			c28,17.3,42,26,53.9,32.2c101,52.6,124.9,59,182.3,88.3c30,15.4,60.4,30.2,92.4,41.3c5.6,2,10.9,1.9,16.6,0
			c29.5-10.2,57.6-23.7,85.5-37.6c38.8-19.2,77.4-38.8,116.2-58c12.6-6.2,38.8-18.2,91-43.1c6.8-3.3,31-15,52.3-35
			c5.3-5,10.4-10.4,11.7-11.8c8.9-9.5,18-19.4,26.1-33.8C893.8,679.6,896.3,674.5,898.7,668.7z"/>
		
			<linearGradient id="SVGID_00000025418403047384142310000008705572286155896489_" gradientUnits="userSpaceOnUse" x1="102.3045" y1="786.5618" x2="898.7301" y2="786.5618">
			<stop  offset="1.118836e-07" style="stop-color:#4F5BD5"/>
			<stop  offset="0.2188" style="stop-color:#962FBF"/>
			<stop  offset="0.4683" style="stop-color:#D62976"/>
			<stop  offset="0.703" style="stop-color:#FA7E1E"/>
			<stop  offset="1" style="stop-color:#FEDA75"/>
		</linearGradient>
		<path style="fill:url(#SVGID_00000025418403047384142310000008705572286155896489_);" d="M898.7,668.7c-1.8,2-4.6,5.2-8.3,9
			c-28.7,30-57.4,46.1-71.7,54c-49.4,27.3-93.4,49.6-147.6,75.2c-45.9,21.7-92.1,42.9-140.8,57.8c-10.6,3.3-21.3,7.3-32.5,6.7
			c-9.4-0.5-18.6-3.4-27.7-6.4c-55-17.8-106.9-43.1-159.1-67.6c-24.4-11.4-48.4-23.6-72.6-35.4c-33.6-16.4-45.5-23.7-56.2-30
			c-29.7-17.8-46.5-31.1-52.6-36.1c-11.6-9.4-20.8-18-27.4-24.4c1.6,3.3,3.9,7.7,6.9,12.6c2.1,3.4,5.4,8.6,11.4,16.4
			c7.7,9.9,14.2,18.4,24.1,27c7.3,6.4,13.6,10.3,18.9,13.6c28,17.3,42,26,53.9,32.2c101,52.6,124.9,59,182.3,88.3
			c30,15.4,60.4,30.2,92.4,41.3c5.6,2,10.9,1.9,16.6,0c29.5-10.2,57.6-23.7,85.5-37.6c38.8-19.2,77.4-38.8,116.2-58
			c12.6-6.2,38.8-18.2,91-43.1c6.8-3.3,31-15,52.3-35c5.3-5,10.4-10.4,11.7-11.8c8.9-9.5,18-19.4,26.1-33.8
			C893.8,679.6,896.3,674.5,898.7,668.7z"/>
		<path class="st15" d="M898.7,668.7c-1.8,2-4.6,5.2-8.3,9c-28.7,30-57.4,46.1-71.7,54c-49.4,27.3-93.4,49.6-147.6,75.2
			c-45.9,21.7-92.1,42.9-140.8,57.8c-10.6,3.3-21.3,7.3-32.5,6.7c-9.4-0.5-18.6-3.4-27.7-6.4c-55-17.8-106.9-43.1-159.1-67.6
			c-24.4-11.4-48.4-23.6-72.6-35.4c-33.6-16.4-45.5-23.7-56.2-30c-29.7-17.8-46.5-31.1-52.6-36.1c-11.6-9.4-20.8-18-27.4-24.4
			c1.6,3.3,3.9,7.7,6.9,12.6c2.1,3.4,5.4,8.6,11.4,16.4c7.7,9.9,14.2,18.4,24.1,27c7.3,6.4,13.6,10.3,18.9,13.6
			c28,17.3,42,26,53.9,32.2c101,52.6,124.9,59,182.3,88.3c30,15.4,60.4,30.2,92.4,41.3c5.6,2,10.9,1.9,16.6,0
			c29.5-10.2,57.6-23.7,85.5-37.6c38.8-19.2,77.4-38.8,116.2-58c12.6-6.2,38.8-18.2,91-43.1c6.8-3.3,31-15,52.3-35
			c5.3-5,10.4-10.4,11.7-11.8c8.9-9.5,18-19.4,26.1-33.8C893.8,679.6,896.3,674.5,898.7,668.7z"/>
	</g>
	<g>
		<path class="st16" d="M571.2,646c19.1,29.6,44.4,43.8,53.2,48.6c0,0,80.7,42.1,166.4-5.6c5-2.8,9.6-6,9.6-6
			c2.6-1.8,5.4-3.9,8.4-6.3c12.6-10.4,19.8-20.7,26.6-30.3c3.4-4.8,5.7-8.7,7.9-13.4c2.6-5.7,4.1-10.7,5-14.3
			c-1.9,2.9-4.8,6.9-8.5,11.6c-6.5,8.3-15.1,19.3-28.9,30.2c-14.7,11.5-28,17.2-31.5,18.6c-10.1,4.2-17.9,5.8-27.2,7.7
			c-11.9,2.5-30,5.3-51.9,4.8c-22-0.5-33.6-4.3-37.6-5.2c-2-0.5-3.8-1.1-6.2-2.1c-9.5-3.2-18.5-6.3-28-9.3
			c-9.5-4.8-20.2-11.1-31.3-19.5c-18.5-13.9-31.8-28.7-41-40.8C558.9,622.6,563.4,633.9,571.2,646z"/>
	</g>
	<path class="st17" d="M565.1,654.7c1.5-0.5,2.8,0.1,3.5,2.2C567.6,656.6,566.4,655.8,565.1,654.7z"/>
	<path class="st18" d="M196.9,680.1c0.9-0.3,1.8,0.1,2.3,1.5C198.6,681.4,197.8,680.9,196.9,680.1z"/>
	<path class="st17" d="M569.2,658.1c0.5,0,1,0.3,1.8,0.8C570.6,659,570,658.7,569.2,658.1z"/>
	<path class="st13" d="M122.4,690.4c-0.2,0-0.4-0.2-0.8-0.7C121.8,689.7,122,689.9,122.4,690.4z"/>
	<path class="st17" d="M563.7,653.5c0.3-0.1,0.7,0.1,1.2,0.6C564.7,654.2,564.2,654,563.7,653.5z"/>
	<path class="st19" d="M823,662.2c-0.1,0,0.2-0.3,0.3-0.4C823.4,661.7,823.2,662.2,823,662.2z"/>
	<path class="st20" d="M417,670.7c-0.2-0.3-0.1-0.5,0.3-0.8C417.6,670.2,417.5,670.4,417,670.7z"/>
	<path class="st13" d="M121.4,689.1c-0.3,0.1-0.6-0.1-0.9-0.6C120.7,688.3,121,688.5,121.4,689.1z"/>
	<path class="st18" d="M189.6,673.9c0.2-0.1,0.5,0.2,1,0.7C190.4,674.7,190,674.5,189.6,673.9z"/>
	<path class="st21" d="M383.8,508c0.7,0.9,1.1,1.4,1.5,2.4c1.8,6.7,4.6,12.8,5.1,19.4c1.2,14.7-0.9,28.4-8.8,41.4
		c-4.7,7.9-11.5,13.2-17.7,19.9c0,0.5-0.2,0.3-0.2,0.4c-4,0.6-6.5,4-10.1,5.3c-21.3,8-41.8,7.3-61.1-5.8c-1.2-0.8-2.5-1.3-4.2-2.2
		c-0.8-0.4-1.1-0.6-1.6-1.1c-0.3-0.6-0.5-0.9-1.1-1.3c-0.2-0.2-0.2-0.2-0.3-0.2c-2.7-3-4.6-6.7-8.2-9.4c-0.3-0.2-0.3-0.3-0.3-0.3
		c-5-9.2-10.2-18.3-11.4-28.8c-1.3-10.6-1.6-21.3,3.3-31.3c0.9-1.9,1.7-4.9,4.3-4.3c2.4,0.5,3.5,3.1,3.5,5.7c0,1.2,0.2,2.4,1.2,3.8
		c3,5.8,5.1,11.4,9.8,15.7c9,8.2,19.7,10.1,30.8,5c9.7-4.5,15.6-14.7,15-26.2c-0.6-11-8.3-20.9-18.7-24.5c-4.6-1.6-9.6-1.2-14.5-3.3
		c-0.7-6,0.9-8.3,7-10c12.4-3.4,24.8-4.4,37.4-1.1c3.7,1,6.8,3.6,11.1,4c0.4,0.2,0.5,0.2,0.5,0.3c0.5,0.6,1.2,0.7,2.1,1
		c0.3,0.2,0.3,0.3,0.3,0.2c0.8,2.7,3.4,2.3,5.6,3.4c0.3,0.2,0.5,0.2,0.5,0.3c0.7,1.5,1.9,2.3,3.7,3.1c0.4,0,0.4,0.1,0.5,0.1
		c0.3,2.2,1.9,2.9,3.9,3.9c0.3,0.2,0.4,0.2,0.4,0.3c0.2,0.2,0.3,0.4,0.8,0.9c0.3,0.3,0.4,0.3,0.4,0.3c0.5,0.6,0.5,1.4,1.3,2
		c0.4,0,0.4,0.1,0.4,0C378,500.9,380.9,504.2,383.8,508z"/>
	<path class="st22" d="M277.3,522.6c-2.9-0.3-2.9-2.3-2.4-4.1c0.6-2.4-0.9-3.7-2-5.6c-9.7,13.6-8.2,28.5-4,42.8
		c2,6.6,5.6,13,8.1,20.2c-11.6-13.2-14.3-29.2-12.8-46.4c1-11.5,5.9-21.3,12.5-30.9c1.6-0.3,2.1-1.2,2.6-2.6
		c18.5-21.8,51.3-28.2,76.6-14.9c-5.9,2.2-10.2-2.7-15.7-3.9c-11.4-2.4-22,0.1-32.8,2.2c-4.2,0.8-6.5,4.1-7.3,8.8
		c-1,2.6-3.2,3.4-5.1,4.5c-10,5.2-16.3,12.8-16,24.6C279.1,519.1,278.8,520.9,277.3,522.6z"/>
	<path class="st22" d="M364.3,591.4c0.8-4.6,3.4-8.1,7.8-10.4c3.4-1.8,6.2-4.7,6.9-8.8c0.7-4.4,5.4-5.8,6.7-10.3
		c2.5-8.6,3.2-17.4,4.2-26.1c0.8-7.3-2.4-14.2-4.5-21.1c-0.3-1.1-1.3-2.1-0.4-3.7c13.1,21.7,7,55.9-13.3,74.6
		C369.5,587.7,367,589.4,364.3,591.4z"/>
	<path class="st22" d="M288.2,588.9c6.6,0.2,10.8,5.9,17.1,7.8c17.9,5.2,35.4,7.1,52-4c1.8-1.2,3.5-1.9,6.1-1.2
		C342.4,607.6,312,606.6,288.2,588.9z"/>
	<path class="st22" d="M384,507.8c-4.8-1.4-6.3-5.9-8-10.5C379.4,499.9,381.9,503.5,384,507.8z"/>
	<path class="st22" d="M277,576.9c4.7,0.7,7,4.1,8.4,8.8C281.8,584.1,279.4,580.7,277,576.9z"/>
	<path class="st22" d="M364.3,486c-1.8-0.8-6,3.1-5.8-2.9C360.4,483.7,362.3,484.7,364.3,486z"/>
	<path class="st22" d="M373,493.3c-2.9,1.3-4.5,0.4-4.3-3.3C370.2,490.7,371.5,491.8,373,493.3z"/>
	<path class="st22" d="M368.5,489.1c-1.9,1.1-3.2,0.2-3.8-2.2C365.9,487.2,367.1,488,368.5,489.1z"/>
	<path class="st21" d="M279,495.9c0.1,1.2,1.4,3.3-1.7,2.9C277.5,497.7,278.1,496.8,279,495.9z"/>
	<path class="st22" d="M358.4,482.4c-0.5,0.1-1.1-0.1-2-0.6C356.8,481.7,357.5,481.9,358.4,482.4z"/>
	<path class="st22" d="M376,496.5c-0.7,0.3-1.3,0-1.6-1.2C374.9,495.4,375.4,495.8,376,496.5z"/>
	<path class="st22" d="M285.6,586.5c0.3-0.2,0.6,0,1,0.6C286.3,587.3,285.9,587.1,285.6,586.5z"/>
	<path class="st22" d="M374.2,494.5c-0.3,0.2-0.6,0-0.9-0.6C373.6,493.7,373.9,493.9,374.2,494.5z"/>
	<path class="st23" d="M643.9,481.8c0.3-0.3,0.5-0.6,0.6-0.5c9.3-2.8,18.2-6.2,28.4-6.6c1-0.2,1.5-0.2,2.4-0.2
		c8.5,2.2,16.8,3.3,24.7,6.8c4.4,1.9,7.6,5.3,12.4,7.1c1,0.5,1.6,0.9,2.3,1.6c0.8,1.5,1.3,2.7,0.9,4.5c-3.1,3-5.5,0.7-7.9-0.5
		c-7.1-3.5-14.3-5.1-22.2-2.6c-11,3.5-18.2,12.4-19.5,24.6c-1,9.6,5.1,20.7,14.2,25.7c10.2,5.6,21.7,4.6,30.7-2.7
		c10.4-8.5,13.2-21,7.6-33.2c-1.2-2.5-3-4.8-2.8-8.3c3.4-3.2,5.2-0.3,6.5,1.6c8.1,11.7,12.5,24.3,12.4,38.9
		c-0.1,15.1-5.3,27.9-13.4,40.6c-0.2,0.4-0.3,0.4-0.3,0.4c-2.5,2.1-4.5,4.6-6.9,7.2c-0.2,0.4-0.2,0.1-0.2,0.2
		c-3.5,1.3-5.8,4.4-8.9,6.2c-20.8,11.9-41.9,13.2-63.3,1.8c-0.9-0.5-1.8-0.8-3.3-1.1c-0.5-0.1-0.7-0.1-0.8-0.2
		c-2.9-5-8.9-6.5-12.4-11.3c-0.3-0.2-0.2-0.3-0.3-0.3c-3.8-6.9-9.4-12.8-11.9-20.7c-6.3-19.9-4.9-38.7,6.8-56.4
		c1.1-1.7,1.8-3.6,3.1-5.7c0.1-0.5,0.2-0.6,0.3-0.7C629.3,491.9,635.6,485.9,643.9,481.8z"/>
	<path class="st24" d="M721.2,578.7c-0.6-1.5,0-3,0.9-4.4c10-14.5,13-30.9,10.4-47.8c-1.5-10.1-5.5-20.1-12.6-28.2c-1-1.1-2-2-4-1.1
		c-0.9,0.2-1.3,0-1.6-0.8c0.1-1.9,0.2-3.5,0.4-5.7C739.9,511.3,743,551.3,721.2,578.7z"/>
	<path class="st24" d="M622.3,498.2c1.3,2.4,0.2,4.6-1.2,6.5c-12.1,16.7-13.1,34.8-7.8,54.2c2.3,8.2,9.4,13.4,11.2,21.9
		c-15.5-15.3-18.8-34.5-15.3-55.4C611.1,515.4,615.3,506.3,622.3,498.2z"/>
	<path class="st24" d="M637.9,593.3c1.1-1,2.4-1.1,3.7-0.3c15.3,9.6,31.5,9.4,48.4,4.9c7-1.9,13-5.3,18.5-9.9c1.3-1.1,2.5-2,4.8-1.7
		c-15.6,15-34.3,19.5-55.5,15.1C650.7,599.9,644.3,597.1,637.9,593.3z"/>
	<path class="st24" d="M712.6,488.1c-0.9,0.3-2.5,0.8-3.2,0.2c-9.5-7.7-20.9-10-32.5-12.1c-0.3-0.1-0.6-0.5-1-1.2
		C689.4,474.8,701.6,479.3,712.6,488.1z"/>
	<path class="st24" d="M643.7,481.5c0.2,0.9,0.2,2.6-0.3,2.7c-8.2,2.4-12.8,9.7-20.1,13.7C628,490.3,635.2,485.3,643.7,481.5z"/>
	<path class="st24" d="M672.8,474.3c-8.7,2.5-17.9,4.8-27.6,7C653.1,476.1,662.6,474.5,672.8,474.3z"/>
	<path class="st24" d="M624.7,581.7c4.8,2.4,10.2,4.6,12.8,10.6C632.4,590,628.3,586.4,624.7,581.7z"/>
	<path class="st24" d="M714.1,586.3c0.2-3.7,2.3-6.1,6.3-7.4C719.5,582,716.9,584,714.1,586.3z"/>
	<path class="st4" d="M136.8,130.9c0.2,2.1-0.5,3.4-2.2,2.3c-1.4-0.9-1.5-3-0.3-4.2C135.6,127.8,136.1,129.6,136.8,130.9z"/>
	<path class="st4" d="M128.8,138.8c0,0,0.5,0.3,0.5,0.3s-0.4,0-0.4-0.2C128.8,138.8,128.8,138.8,128.8,138.8z"/>
	<path class="st25" d="M198.6,169.8C198.6,169.7,198.6,169.8,198.6,169.8z"/>
	<path class="st26" d="M185.9,663.6c-0.1,0-0.2-0.4-0.2-0.8C185.9,662.9,185.9,663.1,185.9,663.6z"/>
	<path class="st27" d="M685,213.6c0.3,0.1,0.5,0.3,0.8,0.5c-0.2,0-0.4,0-0.8-0.2C684.8,213.7,685,213.6,685,213.6z"/>
	<path class="st28" d="M532,681.9c8,4.7,10.5,15.1,3.3,21.5c-7.8,6.9-16.5,10.9-26.4,12.6c-15.2,2.5-29.2-0.1-41.6-9.8
		c-5.9-4.6-8.1-9.3-6.7-14.9c0.8-3,2.4-4.5,5.9-4.8c0.7-0.1,0.9,0,1.5,0.2c0.7-0.2,1.2-0.4,2.1-0.7c2-0.3,3.7,0,5.1-0.9
		c13.1-8.2,27.3-7.3,41.5-4.9C521.7,681.1,526.5,682.1,532,681.9z"/>
	<path class="st29" d="M532.4,681.7c-3.5,3-7.3,2.8-11.4,1.7c-12.8-3.6-25.7-3.6-38.6-0.1c-1.4,0.4-2.8,0.5-3.6,1.8
		c-2.6,4.3-6.2,3.5-10.4,2.1c-0.7,0-1,0-1.3-0.3c-0.1-0.4,0-0.5,0-0.5c-2.8-5.8,1.7-8.2,5.4-10.1c11.8-6.1,24.5-7.4,37.5-5.7
		c5.9,0.8,11.8,2.3,17.1,5.3C529.2,677.2,531.5,678.5,532.4,681.7z"/>
	<path class="st30" d="M277,523.3c-1.4-18.5,5.4-28.8,22.6-34.6c16.6-3.4,32,7.3,35.6,23.5c3.4,15.2-6.4,29.9-22.7,34.3
		C297.8,550.5,282.8,540.9,277,523.3z"/>
	<path class="st29" d="M336.9,569.7c-2.1-7.3-0.6-12.8,4.4-15.8c4.9-2.9,10-3,14.6,0.7c4.6,3.6,6.1,9.5,3.9,14.7
		c-1.7,4.2-4.9,6.7-9.6,7.2C344.4,577.2,340,575.2,336.9,569.7z"/>
	<path class="st21" d="M275.2,511.4C275.2,511.3,275.2,511.4,275.2,511.4z"/>
	<path class="st30" d="M713.9,495.9c0.7,0.6,0.9,1,1.5,1.4c15.9,19.7,5.5,39.1-7.4,46.1c-10.8,5.9-24.2,4.8-33.3-3
		c-9.8-8.3-13.1-20.5-8.8-32.7c4-11.6,14.7-19.8,26.8-19.9C700.4,487.7,707.5,490.4,713.9,495.9z"/>
	<path class="st29" d="M659.1,555.2c4.7,4.9,5.9,10.1,2.7,15.8c-3.1,5.5-8.3,6.2-13.7,5.2c-5.5-1-8.6-5.1-9.5-10.5
		c-0.9-4.9,1.1-8.7,5-11.5C648.8,550.6,653.9,551.3,659.1,555.2z"/>
	<path class="st12" d="M467,686.7c0-0.2,0.5-0.1,0.7,0.2C467.5,687.2,467.2,687.7,467,686.7z"/>
	<g>
		<path class="st16" d="M446.8,609.9c-8.8,12.3-21.7,27.5-39.8,41.9c-10.9,8.7-21.4,15.3-30.8,20.4c-9.4,3.3-18.3,6.6-27.7,10.1
			c-2.3,1-4.2,1.7-6.1,2.3c-4,1.1-15.5,5.2-37.4,6.3c-21.9,1.1-40-1.2-52-3.3c-9.4-1.7-17.2-3.1-27.4-7c-3.6-1.3-17-6.6-32-17.7
			c-14.1-10.5-23.1-21.3-29.8-29.4c-3.8-4.6-6.8-8.6-8.8-11.4c1,3.6,2.6,8.6,5.4,14.2c2.3,4.7,4.8,8.5,8.3,13.2
			c7,9.5,14.6,19.6,27.4,29.6c3.1,2.4,6,4.4,8.6,6.1c0,0,4.7,3,9.8,5.7c86.9,45.3,166.4,0.9,166.4,0.9c8.7-5.1,33.6-20,51.8-50.1
			C440.2,629.3,444.4,617.9,446.8,609.9z"/>
	</g>
	<g>
		
			<linearGradient id="SVGID_00000060723851099396428940000001208152774310908800_" gradientUnits="userSpaceOnUse" x1="744.2039" y1="251.261" x2="861.3759" y2="251.261">
			<stop  offset="0" style="stop-color:#FA7E1E"/>
			<stop  offset="9.741425e-02" style="stop-color:#FB9231"/>
			<stop  offset="0.2806" style="stop-color:#FCB14E"/>
			<stop  offset="0.4584" style="stop-color:#FDC864"/>
			<stop  offset="0.6271" style="stop-color:#FED571"/>
			<stop  offset="0.7765" style="stop-color:#FEDA75"/>
		</linearGradient>
		<path style="fill:url(#SVGID_00000060723851099396428940000001208152774310908800_);" d="M861.4,123
			c-11.4,20.7-23.5,48.6-30.3,82.9c-1.4,7.2-6.6,35.3-4.8,72.3c1.8,37,10.2,64.8,13.4,76.1c0.9,3.3,2,6.5,3.4,10.1
			c-1.7,5.9-5.7,10.1-9.5,15c-6.1-9.7-12.3-19.3-18.7-28.6c-8.6-12.3-16.5-21.6-20.8-26.7c-19.7-23.2-43.6-44.9-49.8-50.6
			c2.5-5.9,6.2-14,11-23.5c7.9-15.6,20.8-41.1,41.6-67.1C809.7,166.9,830.4,144.5,861.4,123z"/>
		<path class="st32" d="M861.4,123c-11.4,20.7-23.5,48.6-30.3,82.9c-1.4,7.2-6.6,35.3-4.8,72.3c1.8,37,10.2,64.8,13.4,76.1
			c0.9,3.3,2,6.5,3.4,10.1c-1.7,5.9-5.7,10.1-9.5,15c-6.1-9.7-12.3-19.3-18.7-28.6c-8.6-12.3-16.5-21.6-20.8-26.7
			c-19.7-23.2-43.6-44.9-49.8-50.6c2.5-5.9,6.2-14,11-23.5c7.9-15.6,20.8-41.1,41.6-67.1C809.7,166.9,830.4,144.5,861.4,123z"/>
	</g>
	<g>
		
			<linearGradient id="SVGID_00000011725889269791879420000006732031328526989470_" gradientUnits="userSpaceOnUse" x1="238.1243" y1="246.9996" x2="358.1846" y2="246.9996" gradientTransform="matrix(-1 5.039195e-04 5.039195e-04 1 497.6829 4.7419)">
			<stop  offset="0.2216" style="stop-color:#962FBF"/>
			<stop  offset="0.8082" style="stop-color:#4F5BD5"/>
		</linearGradient>
		<path style="fill:url(#SVGID_00000011725889269791879420000006732031328526989470_);" d="M204.1,183.6
			c10.6,13.3,21.1,32.3,39.3,62.8c6.9,11.5,12.5,21.2,16.3,27.8c-25.3,21.2-41.8,39.3-51.7,51.2c-9,10.8-19.1,24.4-20.6,26.5
			c-8.2,11.1-14.9,20.8-19.9,28.2c-3.8-4.9-7.8-9.2-9.5-15c1.3-3.6,2.5-6.8,3.4-10.1c3.2-11.4,11.5-39.1,13.4-76.1
			c1.8-37-3.4-65.1-4.8-72.3c-6.8-34.3-18.9-62.2-30.3-82.9C170.7,145.1,191.3,167.5,204.1,183.6z"/>
		<path class="st32" d="M204.1,183.6c10.6,13.3,21.1,32.3,39.3,62.8c6.9,11.5,12.5,21.2,16.3,27.8c-25.3,21.2-41.8,39.3-51.7,51.2
			c-9,10.8-19.1,24.4-20.6,26.5c-8.2,11.1-14.9,20.8-19.9,28.2c-3.8-4.9-7.8-9.2-9.5-15c1.3-3.6,2.5-6.8,3.4-10.1
			c3.2-11.4,11.5-39.1,13.4-76.1c1.8-37-3.4-65.1-4.8-72.3c-6.8-34.3-18.9-62.2-30.3-82.9C170.7,145.1,191.3,167.5,204.1,183.6z"/>
	</g>
</g>
</svg>
